<?xml version="1.0" standalone="no"?>
<!DOCTYPE svg PUBLIC "-//W3C//DTD SVG 20010904//EN"
 "http://www.w3.org/TR/2001/REC-SVG-20010904/DTD/svg10.dtd">
<svg version="1.0" xmlns="http://www.w3.org/2000/svg"
 width="155.000000pt" height="155.000000pt" viewBox="0 0 155.000000 155.000000"
 preserveAspectRatio="xMidYMid meet">
<metadata>
Created by potrace 1.14, written by Peter Selinger 2001-2017
</metadata>
<g transform="translate(0.000000,155.000000) scale(0.100000,-0.100000)"
fill="#000000" stroke="none">
<path d="M720 1527 c-61 -32 -145 -113 -185 -182 -42 -71 -63 -137 -71 -220
-3 -33 -7 -62 -10 -64 -2 -2 -23 2 -46 10 -29 9 -90 14 -190 14 -140 0 -149
-1 -170 -23 -20 -19 -23 -35 -26 -110 -3 -58 2 -109 13 -152 22 -88 96 -236
142 -286 83 -89 79 -81 55 -107 -26 -28 -71 -126 -79 -171 -10 -60 2 -82 60
-110 97 -48 284 -57 404 -21 26 8 49 15 49 15 1 0 4 -23 6 -51 3 -28 12 -55
19 -60 8 -5 49 -9 91 -9 88 0 98 8 98 79 0 23 1 41 3 41 2 0 28 -8 58 -17 38
-12 87 -17 169 -17 192 1 311 51 296 124 -9 49 -47 138 -75 181 l-29 43 54 59
c61 68 135 209 158 303 21 82 21 222 1 251 -9 13 -35 27 -58 34 -62 17 -222
14 -296 -5 -35 -10 -65 -16 -66 -14 -2 2 -6 32 -10 68 -17 169 -116 324 -249
392 -55 28 -68 29 -116 5z m128 -107 c103 -80 154 -180 160 -310 2 -47 -1
-102 -6 -123 -19 -70 5 -86 63 -42 63 49 139 68 263 69 88 0 116 -4 123 -15
15 -21 3 -156 -21 -223 -42 -122 -118 -233 -202 -293 -26 -19 -48 -39 -48 -43
0 -5 21 -28 46 -52 53 -50 97 -128 92 -166 -5 -42 -92 -65 -228 -60 -88 3
-116 9 -170 32 -36 16 -76 29 -90 30 -24 1 -25 -1 -28 -76 -3 -75 -4 -78 -27
-78 -23 0 -24 3 -27 78 -3 75 -4 77 -28 76 -14 -1 -54 -14 -90 -30 -54 -23
-82 -29 -170 -32 -127 -4 -223 19 -228 55 -6 38 38 120 89 168 27 25 49 50 49
55 0 4 -23 24 -50 44 -79 57 -157 172 -202 301 -21 60 -33 194 -19 214 7 11
35 15 123 15 124 -1 200 -20 263 -69 58 -43 81 -29 64 41 -27 121 4 264 78
359 45 57 123 115 154 115 9 0 40 -18 67 -40z"/>
<path d="M748 955 l-3 -405 -80 52 c-45 29 -126 82 -180 117 -55 36 -133 86
-173 113 -40 26 -79 48 -87 48 -13 0 -31 -37 -22 -46 7 -8 388 -255 450 -292
31 -19 57 -37 57 -41 0 -3 -69 -48 -153 -98 -84 -51 -158 -98 -164 -104 -13
-13 0 -49 18 -49 6 0 70 37 142 81 73 45 147 91 165 101 l32 20 0 -71 c0 -69
1 -71 25 -71 24 0 25 2 25 65 0 36 2 65 5 65 7 0 172 -99 257 -153 31 -21 62
-37 67 -37 9 0 31 31 31 43 0 2 -74 48 -166 103 l-165 99 28 22 c29 23 234
157 391 257 94 59 97 62 86 90 -9 25 -28 20 -101 -29 -37 -24 -149 -98 -248
-163 l-180 -118 -3 403 -2 403 -25 0 -25 0 -2 -405z"/>
</g>
</svg>
